<?xml version="1.0" encoding="UTF-8"?><svg data-name="Guidex" viewBox="0 0 336.85 338" xmlns="http://www.w3.org/2000/svg" xmlns:xlink="http://www.w3.org/1999/xlink"><defs><style>.cls-1{fill:url(#a);}.cls-2{fill:url(#i);}.cls-3{fill:url(#h);}.cls-4{fill:url(#g);}.cls-5{fill:url(#f);}.cls-6{fill:url(#e);}.cls-7{fill:url(#d);}.cls-8{fill:url(#c);}.cls-9{fill:url(#b);}</style><linearGradient id="a" x1="49.5" x2="288.5" y1="49.5" y2="288.5" gradientUnits="userSpaceOnUse"><stop stop-color="#ff805f" offset="0"/><stop stop-color="#fe7561" offset=".16"/><stop stop-color="#fb5868" offset=".44"/><stop stop-color="#f62872" offset=".81"/><stop stop-color="#f30c78" offset="1"/></linearGradient><linearGradient id="i" x1="152.24" x2="185.76" y1="152.24" y2="185.76" xlink:href="#a"/><linearGradient id="h" x1="143.6" x2="194.4" y1="68.07" y2="118.88" xlink:href="#a"/><linearGradient id="g" x1="68.07" x2="118.88" y1="143.6" y2="194.4" xlink:href="#a"/><linearGradient id="f" x1="219.33" x2="224.83" y1="113.17" y2="118.67" xlink:href="#a"/><linearGradient id="e" x1="102.94" x2="128.9" y1="102.94" y2="128.9" xlink:href="#a"/><linearGradient id="d" x1="113.17" x2="118.67" y1="219.33" y2="224.83" xlink:href="#a"/><linearGradient id="c" x1="209.1" x2="235.06" y1="209.1" y2="235.06" xlink:href="#a"/><linearGradient id="b" x1="144.45" x2="193.55" y1="218.66" y2="267.77" xlink:href="#a"/></defs><path class="cls-1" d="M338,169A169,169,0,1,1,169,0,168.47,168.47,0,0,1,288.5,49.5L258.33,79.67A126.32,126.32,0,1,0,293.78,188.8H198.17a35.09,35.09,0,0,0,5.26-12.21l90.4-9.09-91.23-9.18a35.11,35.11,0,0,0-6.79-12.21H336.46A169.57,169.57,0,0,1,338,169Z"/><circle class="cls-2" cx="169" cy="169" r="23.71"/><path class="cls-3" d="M178.29,135a35.42,35.42,0,0,0-18.58,0L169,42.67Z"/><path class="cls-4" d="M135,159.71a35.42,35.42,0,0,0,0,18.58L42.67,169Z"/><path class="cls-5" d="m211.85 131.65a15.56 15.56 0 0 0-5.5-5.5l28.71-23.21z"/><path class="cls-6" d="m131.65 126.15a15.56 15.56 0 0 0-5.5 5.5l-23.21-28.71z"/><path class="cls-7" d="m126.15 206.35a15.56 15.56 0 0 0 5.5 5.5l-28.71 23.21z"/><path class="cls-8" d="m206.35 211.85a15.56 15.56 0 0 0 5.5-5.5l23.21 28.71z"/><path class="cls-9" d="m178 203.09-9 89.24-9-89.24a35.34 35.34 0 0 0 18 0z"/></svg>